<?xml version="1.0" encoding="UTF-8" standalone="no" ?>
<!DOCTYPE svg PUBLIC "-//W3C//DTD SVG 1.1//EN" "http://www.w3.org/Graphics/SVG/1.1/DTD/svg11.dtd">
<svg xmlns="http://www.w3.org/2000/svg" xmlns:xlink="http://www.w3.org/1999/xlink" version="1.1" width="1080" height="1080" viewBox="0 0 1080 1080" xml:space="preserve">
<desc>Created with Fabric.js 5.2.4</desc>
<defs>
</defs>
<g transform="matrix(1 0 0 1 540 540)" id="6659160c-8f61-4bce-ba7f-4fc240cba93d"  >
<rect style="stroke: none; stroke-width: 1; stroke-dasharray: none; stroke-linecap: butt; stroke-dashoffset: 0; stroke-linejoin: miter; stroke-miterlimit: 4; fill: rgb(255,255,255); fill-rule: nonzero; opacity: 1; visibility: hidden;" vector-effect="non-scaling-stroke"  x="-540" y="-540" rx="0" ry="0" width="1080" height="1080" />
</g>
<g transform="matrix(Infinity NaN NaN Infinity 0 0)" id="1a1afb76-7254-4745-8c7c-9a9fda9830a5"  >
</g>
<g transform="matrix(4.15 0 0 4.15 540.37 542.22)"  >
<g style="" vector-effect="non-scaling-stroke"   >
		<g transform="matrix(10.67 0 0 10.67 0 0)" id="MingCute"  >
<path style="stroke: none; stroke-width: 1; stroke-dasharray: none; stroke-linecap: butt; stroke-dashoffset: 0; stroke-linejoin: miter; stroke-miterlimit: 4; fill: none; fill-rule: nonzero; opacity: 1;" vector-effect="non-scaling-stroke"  transform=" translate(-12, -12)" d="M 24 0 L 24 24 L 0 24 L 0 0 L 24 0 Z M 12.5934901 23.257841 L 12.5819402 23.2595131 L 12.5108777 23.2950439 L 12.4918791 23.2987469 L 12.4918791 23.2987469 L 12.4767152 23.2950439 L 12.4056548 23.2595131 C 12.3958229 23.2563662 12.3870493 23.2590235 12.3821421 23.2649074 L 12.3780323 23.275831 L 12.360941 23.7031097 L 12.3658947 23.7234994 L 12.3769048 23.7357139 L 12.4804777 23.8096931 L 12.4953491 23.8136134 L 12.4953491 23.8136134 L 12.5071152 23.8096931 L 12.6106902 23.7357139 L 12.6232938 23.7196733 L 12.6232938 23.7196733 L 12.6266527 23.7031097 L 12.609561 23.275831 C 12.6075724 23.2657013 12.6010112 23.2592993 12.5934901 23.257841 L 12.5934901 23.257841 Z M 12.8583906 23.1452862 L 12.8445485 23.1473072 L 12.6598443 23.2396597 L 12.6498822 23.2499052 L 12.6498822 23.2499052 L 12.6471943 23.2611114 L 12.6650943 23.6906389 L 12.6699349 23.7034178 L 12.6699349 23.7034178 L 12.678386 23.7104931 L 12.8793402 23.8032389 C 12.8914285 23.8068999 12.9022333 23.8029875 12.9078286 23.7952264 L 12.9118235 23.7811639 L 12.8776777 23.1665331 C 12.8752882 23.1545897 12.8674102 23.1470016 12.8583906 23.1452862 L 12.8583906 23.1452862 Z M 12.1430473 23.1473072 C 12.1332178 23.1423925 12.1221763 23.1452606 12.1156365 23.1525954 L 12.1099173 23.1665331 L 12.0757714 23.7811639 C 12.0751323 23.7926639 12.0828099 23.8018602 12.0926481 23.8045676 L 12.108256 23.8032389 L 12.3092106 23.7104931 L 12.3186497 23.7024347 L 12.3186497 23.7024347 L 12.3225043 23.6906389 L 12.340401 23.2611114 L 12.337245 23.2485176 L 12.337245 23.2485176 L 12.3277531 23.2396597 L 12.1430473 23.1473072 Z" stroke-linecap="round" />
</g>
		<g transform="matrix(10.67 0 0 10.67 0 0)" id="形状"  >
<path style="stroke: none; stroke-width: 1; stroke-dasharray: none; stroke-linecap: butt; stroke-dashoffset: 0; stroke-linejoin: miter; stroke-miterlimit: 4; fill: rgb(0,0,0); fill-rule: evenodd; opacity: 1;" vector-effect="non-scaling-stroke"  transform=" translate(-12, -12)" d="M 17 4 C 17.763 4 18.3943 4.43433 18.856 4.88911 C 19.3373 5.36318 19.7777 5.99879 20.1696 6.69921 C 20.9568 8.10625 21.6416 9.94322 22.0951 11.7575 C 22.5456 13.5593 22.7935 15.4395 22.6349 16.919 C 22.4759 18.4035 21.7111 20 20 20 C 18.5236571 20 17.3480707 19.2399528 16.3857126 18.4685583 L 16.0346525 18.1802157 L 16.0346525 18.1802157 L 15.5433 17.7649 L 15.5433 17.7649 L 15.0989068 17.396701 C 14.0806187 16.5716156 13.1746 16 12 16 C 10.8254 16 9.91935828 16.5716156 8.90105775 17.396701 L 8.45666 17.7649 L 8.45666 17.7649 L 7.96532082 18.1802157 L 7.96532082 18.1802157 L 7.61426605 18.4685583 C 6.6519195 19.2399528 5.47632476 20 4.00002 20 C 2.28897 20 1.52419 18.4035 1.36515 16.919 C 1.20663 15.4395 1.45448 13.5593 1.90493 11.7575 C 2.35847 9.94323 3.04321 8.10626 3.83047 6.69922 C 4.22237 5.99879 4.66268 5.36318 5.144 4.88911 C 5.60574 4.43432 6.23699 4 7.00002 4 C 7.515445 4 8.01775281 4.12284766 8.51339607 4.26966602 L 9.10538197 4.45102586 C 9.20365078 4.48106078 9.30175625 4.5104725 9.39975 4.53847 C 10.2653 4.78576 11.15 5 12 5 C 12.85 5 13.7347 4.78576 14.6003 4.53848 L 15.4847803 4.27088135 C 15.9827734 4.12392578 16.4903125 4 17 4 Z M 17.0004 6.00029 C 16.6169625 6.00029 16.2168062 6.11562984 15.8287887 6.2426523 L 15.370841 6.39405285 C 15.2961031 6.41800953 15.2223125 6.440775 15.1497 6.46152 C 14.2652 6.71424 13.1499 7 12 7 C 10.8501 7 9.73483 6.71424 8.85032 6.46153 L 8.62928887 6.3940758 L 8.62928887 6.3940758 L 8.17143348 6.24260693 C 7.78344734 6.11549219 7.38325125 6 7.00002 6 C 6.58186667 6.07771333 6.20678444 6.58480444 5.92418963 7.05542741 L 5.76612656 7.32969824 L 5.76612656 7.32969824 L 5.57584 7.67578 L 5.57584 7.67578 C 4.89437 8.89374 4.26664 10.5568 3.84521 12.2425 C 3.45100357 13.8194 3.25933847 15.3287 3.3322255 16.4534203 L 3.358 16.7459 L 3.358 16.7459 L 3.37769802 16.9217299 L 3.37769802 16.9217299 L 3.40810417 17.1303954 C 3.47685462 17.5312191 3.62591 18 4.00002 18 C 4.81235176 18 5.48909758 17.5960958 6.3330526 16.9256615 L 6.73554573 16.5978053 L 6.73554573 16.5978053 L 7.49505162 15.9617731 L 7.49505162 15.9617731 L 7.84007491 15.6818485 C 8.90408405 14.8390529 10.2347645 14 12 14 C 13.7653091 14 15.0959628 14.8390529 16.1599434 15.6818485 L 16.5049572 15.9617731 L 16.5049572 15.9617731 L 17.2644323 16.5978053 L 17.2644323 16.5978053 L 17.6669146 16.9256615 C 18.5108567 17.5960958 19.1876529 18 20 18 C 20.3401333 18 20.4942667 17.6125778 20.5711407 17.2409926 L 20.608864 17.023168 L 20.608864 17.023168 L 20.6463 16.706 L 20.6463 16.706 C 20.7691 15.5605 20.5794 13.9407 20.1549 12.2425 C 19.768525 10.697275 19.2088847 9.17108229 18.593366 7.98930824 L 18.233952 7.32978248 L 18.233952 7.32978248 L 18.0759333 7.05556556 C 17.7934222 6.58503222 17.4184667 6.07802333 17.0004 6.00029 Z M 8.5 8 C 9.88071 8 11 9.11929 11 10.5 C 11 11.8807 9.88071 13 8.5 13 C 7.11929 13 6 11.8807 6 10.5 C 6 9.11929 7.11929 8 8.5 8 Z M 15.5 8 C 16.01285 8 16.4355092 8.38604429 16.4932725 8.88337975 L 16.5 9 L 16.5 9.5 L 17 9.5 C 17.5523 9.5 18 9.94772 18 10.5 C 18 11.01285 17.613973 11.4355092 17.1166239 11.4932725 L 17 11.5 L 16.5 11.5 L 16.5 12 C 16.5 12.5523 16.0523 13 15.5 13 C 14.98715 13 14.5644908 12.613973 14.5067275 12.1166239 L 14.5 12 L 14.5 11.5 L 14 11.5 C 13.4477 11.5 13 11.0523 13 10.5 C 13 9.98716857 13.386027 9.56449347 13.8833761 9.5067278 L 14 9.5 L 14.5 9.5 L 14.5 9 C 14.5 8.44772 14.9477 8 15.5 8 Z M 8.5 10 C 8.22386 10 8 10.2239 8 10.5 C 8 10.7761 8.22386 11 8.5 11 C 8.77614 11 9 10.7761 9 10.5 C 9 10.2239 8.77614 10 8.5 10 Z" stroke-linecap="round" />
</g>
</g>
</g>
</svg>